<?xml version="1.0" encoding="utf-8"?>
<svg version="1.1" xmlns="http://www.w3.org/2000/svg" xmlns:xlink="http://www.w3.org/1999/xlink" x="0px" y="0px" viewBox="0 0 516 516" xml:space="preserve">
	<style>
		path {
			fill: #00579e;
		}

		@media (prefers-color-scheme: dark) {
			path {
				fill: #ccddec;
			}
		}
	</style>
	<g>
		<path d="M101.9,165.8c13,0,23.6-10.5,23.6-23.6c0-13-10.5-23.6-23.6-23.6c-13,0.2-23.6,10.7-23.6,23.7 C78.3,155.2,88.8,165.8,101.9,165.8z"/>
		<path d="M161.4,0.1v435.5h276.3V0.1H161.4z M220,165.8c-13,0-23.6-10.5-23.6-23.6c0-13,10.5-23.6,23.6-23.6
			s23.6,10.5,23.6,23.6C243.6,155.3,233,165.8,220,165.8z M337.1,398.4c-13,0-23.6-10.5-23.6-23.6s10.5-23.6,23.6-23.6
			c13,0,23.6,10.5,23.6,23.6S350.1,398.4,337.1,398.4z M337.1,282.5c-13,0-23.6-10.5-23.6-23.6c0-13,10.5-23.6,23.6-23.6
			c13,0,23.6,10.5,23.6,23.6C360.6,272,350.1,282.5,337.1,282.5z M337.1,165.8c-13,0-23.6-10.5-23.6-23.6c0-13,10.5-23.6,23.6-23.6
			c13,0,23.6,10.5,23.6,23.6C360.6,155.3,350.1,165.8,337.1,165.8z"/>
		<path d="M338.8,515.9c13,0,23.6-10.5,23.6-23.6c0-13-10.5-23.6-23.6-23.6c-13,0-23.6,10.5-23.6,23.6 C315.4,505.3,325.9,515.9,338.8,515.9z"/>
	</g>
</svg>
